<svg width="642" height="563" viewBox="0 0 642 563" fill="none" xmlns="http://www.w3.org/2000/svg">
<path d="M526.334 208.397C521.107 208.357 516.08 207.679 512.489 202.572C505.466 192.517 494.773 183.539 482.803 193.714C475.9 199.619 481.087 211.709 475.142 217.534C469.875 222.681 463.172 221.843 460.499 230.382C456.549 242.951 469.037 253.963 473.027 264.856C476.379 273.993 468.838 277.464 465.446 284.567C462.813 290.033 464.17 295.938 467.042 301.165C472.07 310.422 483.242 317.843 480.648 329.813C478.494 339.789 476.499 348.686 485.277 356.267C491.302 361.454 502.514 366.203 501.676 375.779C501.357 379.17 499.002 382.083 498.364 385.434C497.327 390.741 500.798 395.888 504.748 399.519C513.805 407.818 521.786 415.599 528.608 426.013C531.521 430.482 543.132 440.537 538.504 446.602C546.963 435.549 555.9 424.816 563.561 413.165C569.865 403.589 579.401 389.624 572.898 377.813C570.863 374.143 567.152 371.429 566.115 367.36C564.279 360.018 571.461 353.235 574.135 347.01C578.324 337.235 575.252 325.863 567.87 318.522C564.359 315.05 560.569 311.22 560.05 306.312C559.491 300.966 562.843 295.978 564.359 291.03C565.756 286.482 566.633 281.654 567.152 276.906C567.511 273.554 567.671 270.163 566.873 266.891C565.396 260.666 559.771 257.235 555.661 252.806C545.805 242.312 550.992 229.983 546.683 217.774C542.773 206.961 534.354 208.437 526.334 208.397Z" fill="#26A8D1"/>
<path d="M539.501 459.17C543.172 417.235 539.78 374.941 532.04 333.604C524.658 294.183 514.963 254.642 500.239 217.295C495.372 204.966 489.905 192.836 483.721 181.105" stroke="#3DC8E8" stroke-width="5" stroke-miterlimit="10"/>
<path d="M450.604 237.324C471.272 244.626 490.943 254.601 509.017 266.93C513.606 270.082 516.16 271.04 519.99 275.07" stroke="#3DC8E8" stroke-width="5" stroke-miterlimit="10"/>
<path d="M529.805 320.039C509.975 307.231 487.511 298.573 464.209 294.742" stroke="#3DC8E8" stroke-width="5" stroke-miterlimit="10"/>
<path d="M537.625 374.144C519.191 358.144 496.688 346.892 472.867 341.625" stroke="#3DC8E8" stroke-width="5" stroke-miterlimit="10"/>
<path d="M518.992 273.715C520.429 251.53 525.975 229.585 535.192 209.355" stroke="#3DC8E8" stroke-width="5" stroke-miterlimit="10"/>
<path d="M529.566 318.202C538.943 298.132 552.469 280.057 569.068 265.414" stroke="#3DC8E8" stroke-width="5" stroke-miterlimit="10"/>
<path d="M538.863 375.699C540.14 369.514 542.414 363.529 545.567 358.023C549.237 351.639 553.986 345.973 558.853 340.427C562.365 336.437 565.916 332.527 569.547 328.656" stroke="#3DC8E8" stroke-width="5" stroke-miterlimit="10"/>
<path d="M590.334 284.848C594.124 285.566 597.875 285.765 601.187 282.533C607.65 276.229 616.668 271.162 623.97 280.219C628.159 285.446 622.733 293.506 626.244 298.573C629.356 303.042 634.344 303.361 635.102 309.905C636.219 319.561 625.645 325.825 621.256 333.167C617.546 339.311 622.573 342.903 624.049 348.528C625.207 352.878 623.411 356.947 620.618 360.339C615.67 366.364 606.573 370.194 606.773 379.252C606.972 386.793 607.172 393.536 599.75 397.805C594.643 400.718 585.865 402.593 585.147 409.696C584.907 412.209 586.184 414.643 586.224 417.157C586.224 421.147 583.032 424.419 579.64 426.494C571.9 431.242 565.037 435.79 558.653 442.414C555.94 445.247 546.084 450.912 548.638 455.98C544.049 446.803 539.062 437.745 535.072 428.249C531.8 420.429 526.852 408.977 533.197 401.316C535.152 398.922 538.264 397.486 539.581 394.693C541.935 389.626 537.665 383.72 536.588 378.813C534.912 371.152 538.703 363.331 545.087 359.022C548.119 356.987 551.391 354.753 552.429 351.242C553.586 347.451 551.83 343.341 551.431 339.551C551.032 336.04 551.072 332.409 551.351 328.937C551.551 326.464 551.91 323.95 552.947 321.715C554.902 317.406 559.411 315.691 563.042 313.057C571.66 306.793 569.586 297.137 574.414 288.878C578.603 281.536 584.508 283.77 590.334 284.848Z" fill="#3DC8E8"/>
<path d="M546.045 464.917C549.197 433.994 557.496 403.79 568.828 374.862C579.641 347.291 592.17 319.959 608.01 294.902C613.237 286.603 618.863 278.583 625.008 270.922" stroke="#26A8D1" stroke-width="5" stroke-miterlimit="10"/>
<path d="M641.247 316.328C625.247 318.762 609.606 323.271 594.763 329.735C591.013 331.371 589.018 331.73 585.666 334.124" stroke="#26A8D1" stroke-width="5" stroke-miterlimit="10"/>
<path d="M572.379 365.366C588.539 358.822 606.015 355.63 623.451 356.069" stroke="#26A8D1" stroke-width="5" stroke-miterlimit="10"/>
<path d="M559.172 403.551C574.773 394.493 592.648 389.426 610.643 388.947" stroke="#26A8D1" stroke-width="5" stroke-miterlimit="10"/>
<path d="M586.623 333.246C588.658 316.927 587.66 300.288 583.75 284.328" stroke="#26A8D1" stroke-width="5" stroke-miterlimit="10"/>
<path d="M572.817 364.05C568.787 348.209 561.486 333.207 551.471 320.279" stroke="#26A8D1" stroke-width="5" stroke-miterlimit="10"/>
<path d="M558.095 404.468C558.015 399.8 557.177 395.131 555.661 390.702C553.905 385.555 551.232 380.767 548.439 376.099C546.444 372.707 544.409 369.396 542.334 366.084" stroke="#26A8D1" stroke-width="5" stroke-miterlimit="10"/>
<path d="M509.256 454.223H586.622L573.016 531.629H522.822L509.256 454.223Z" fill="#9D786A"/>
<path d="M499.783 454.234H596.062V432.489H499.783V454.234Z" fill="#94624F"/>
<path opacity="0.1" d="M584.787 464.477H511.051L509.256 454.223H586.622L584.787 464.477Z" fill="#231F20"/>
<path d="M126.574 484.668H19.3223V494.444H126.574V484.668Z" fill="#94624F"/>
<path d="M120.032 327.859H27.543V343.74H120.032V327.859Z" fill="#94624F"/>
<path d="M146.964 317.047H0.609375V327.86H146.964V317.047Z" fill="#9D786A"/>
<path d="M142.815 531.91H131.084L108.381 343.74H120.112L142.815 531.91Z" fill="#94624F"/>
<path d="M4.71875 531.91H16.4494L39.1527 343.74H27.4619L4.71875 531.91Z" fill="#94624F"/>
<path d="M77.936 327.859H69.6367V531.909H77.936V327.859Z" fill="#9D786A"/>
<path d="M81.127 250.732L81.1669 245.186" stroke="#151614" stroke-miterlimit="10"/>
<path d="M91.7409 251.25H70.5938V311.619H91.7409V251.25Z" fill="#880E7A"/>
<path d="M91.7409 251.251H70.5938L72.3494 249.256H89.9454L91.7409 251.251Z" fill="#491643"/>
<path d="M108.379 260.827L108.459 255.281" stroke="#151614" stroke-miterlimit="10"/>
<path d="M119.032 261.346H97.8848V311.62H119.032V261.346Z" fill="#880E7A"/>
<path d="M119.032 261.345H97.8848L99.6404 259.35H117.236L119.032 261.345Z" fill="#491643"/>
<path d="M123.781 316.846H65.4465C64.3692 316.846 63.5312 315.968 63.5312 314.931V311.619H125.736V314.931C125.696 315.968 124.858 316.846 123.781 316.846Z" fill="#0B2D4E"/>
<path d="M50.6046 316.966H31.253C25.5073 316.966 20.8789 312.338 20.8789 306.592V259.51H60.9787V306.592C60.9787 312.338 56.3503 316.966 50.6046 316.966Z" fill="#FFC73C"/>
<path d="M63.8106 272.518C54.1946 272.518 46.4141 280.418 46.4141 290.193C46.4141 299.969 54.1946 307.869 63.8106 307.869C73.4265 307.869 81.2071 299.969 81.2071 290.193C81.2071 280.458 73.4265 272.518 63.8106 272.518ZM63.8106 301.565C57.626 301.565 52.5986 296.458 52.5986 290.193C52.5986 283.929 57.626 278.822 63.8106 278.822C69.9951 278.822 75.0225 283.929 75.0225 290.193C74.9826 296.458 69.9951 301.565 63.8106 301.565Z" fill="#FFC73C"/>
<path opacity="0.2" d="M26.9046 295.18C25.7076 295.18 24.75 294.222 24.75 293.025V265.055C24.75 263.858 25.7076 262.9 26.9046 262.9C28.1016 262.9 29.0592 263.858 29.0592 265.055V293.025C29.0592 294.182 28.0617 295.18 26.9046 295.18Z" fill="white"/>
<path d="M51.7214 259.549V306.831C51.7214 312.457 47.1728 317.005 41.5469 317.005H50.8037C56.4297 317.005 60.9783 312.457 60.9783 306.831V259.549H51.7214Z" fill="#EFBC3C"/>
<path d="M245.638 460.127H390.555C430.735 460.127 463.174 427.249 462.575 387.03L462.655 185.613C462.096 146.232 430.017 114.631 390.635 114.631H248.59C209.209 114.631 177.129 146.232 176.57 185.613L173.618 387.03C173.019 427.209 205.458 460.127 245.638 460.127Z" fill="#66BBC4"/>
<path d="M245.638 461.123H390.556C430.735 461.123 463.174 428.246 462.575 388.026C462.575 388.026 463.094 273.193 462.655 246.5C397.339 336.754 241.209 337.632 175.693 247.498C175.134 282.57 173.658 388.026 173.658 388.026C173.019 428.206 205.458 461.123 245.638 461.123Z" fill="#66A5AF"/>
<path d="M211.801 339.748H426.425C428.061 339.748 429.417 341.105 429.417 342.741V392.656C429.417 394.292 428.061 395.648 426.425 395.648H211.801C210.165 395.648 208.809 394.292 208.809 392.656V342.741C208.809 341.105 210.165 339.748 211.801 339.748Z" fill="#66BBC4"/>
<path d="M216.629 339.748H422.115C426.305 339.748 429.656 343.14 429.656 347.289H209.088C209.088 343.14 212.44 339.748 216.629 339.748Z" fill="#8ED2CC"/>
<path d="M216.39 395.649H421.876C426.066 395.649 429.417 392.257 429.417 388.107H208.809C208.809 392.257 212.2 395.649 216.39 395.649Z" fill="#66A5AF"/>
<path d="M160.969 495.389L479.771 495.389V467.179L160.969 467.179V495.389Z" fill="#94624F"/>
<path d="M462.814 520.019C472.818 520.019 480.929 511.908 480.929 501.904C480.929 491.899 472.818 483.789 462.814 483.789C452.809 483.789 444.699 491.899 444.699 501.904C444.699 511.908 452.809 520.019 462.814 520.019Z" fill="#94624F"/>
<path d="M462.814 531.149C468.962 531.149 473.946 526.165 473.946 520.017C473.946 513.869 468.962 508.885 462.814 508.885C456.666 508.885 451.682 513.869 451.682 520.017C451.682 526.165 456.666 531.149 462.814 531.149Z" fill="#94624F"/>
<path d="M177.048 520.497C187.053 520.497 195.163 512.387 195.163 502.382C195.163 492.378 187.053 484.268 177.048 484.268C167.044 484.268 158.934 492.378 158.934 502.382C158.934 512.387 167.044 520.497 177.048 520.497Z" fill="#94624F"/>
<path d="M177.048 531.63C183.196 531.63 188.18 526.645 188.18 520.497C188.18 514.349 183.196 509.365 177.048 509.365C170.9 509.365 165.916 514.349 165.916 520.497C165.916 526.645 170.9 531.63 177.048 531.63Z" fill="#94624F"/>
<path d="M182.354 250.371C183.192 254.162 199.112 324.426 199.87 329.972C200.629 335.478 199.631 352.915 199.671 349.803C199.711 346.69 199.432 356.386 205.496 355.429C208.529 354.95 231.671 347.488 255.132 343.778C278.673 340.067 302.574 340.107 304.888 339.708C309.516 338.87 311.152 336.356 312.708 329.214C314.264 322.072 303.85 293.144 302.215 283.808C300.579 274.431 299.781 239.319 298.703 234.73C297.267 228.665 291.441 226.75 286.414 227.429C283.541 227.828 254.135 233.972 231.152 237.124C208.489 240.197 192.249 240.197 189.895 240.516C185.107 241.154 181.516 246.621 182.354 250.371Z" fill="#00A09D"/>
<path d="M182.754 250.331C183.592 254.121 199.512 324.386 200.27 329.932C201.028 335.438 200.031 352.874 200.071 349.762C200.111 346.65 199.831 356.346 205.896 355.388C208.929 354.909 232.071 347.448 255.532 343.737C279.073 340.026 302.973 340.066 305.288 339.667C309.916 338.829 311.552 336.316 313.108 329.174C313.826 325.942 312.071 318.201 309.757 309.822C260.4 335.039 196.719 329.014 196.041 240.156C193.008 240.276 191.013 240.356 190.295 240.475C185.547 241.074 181.956 246.58 182.754 250.331Z" fill="#1D7E8E"/>
<path d="M154.185 287.359H186.903C198.993 287.359 208.808 297.175 208.808 309.265V396.646H429.416V309.265C429.416 297.175 439.232 287.359 451.322 287.359H484.04C496.13 287.359 505.945 297.175 505.945 309.265V396.646L500.918 460.088H429.416H208.808H137.307L132.279 396.646V309.265C132.279 297.175 142.055 287.359 154.185 287.359Z" fill="#66BBC4"/>
<path d="M156.939 479.238H481.767C492.341 479.238 500.919 470.659 500.919 460.086H137.787C137.787 470.699 146.366 479.238 156.939 479.238Z" fill="#66A5AF"/>
<path d="M462.176 185.613C461.618 146.232 423.034 95.4785 343.792 95.4785H292.401C214.994 95.4785 176.57 145.793 176.57 185.613C251.902 165.942 229.638 216.336 319.134 216.336C408.59 216.376 394.825 171.688 462.176 185.613Z" fill="#8ED2CC"/>
<path d="M478.256 361.694C505.339 361.694 527.294 339.739 527.294 312.657C527.294 285.574 505.339 263.619 478.256 263.619C451.174 263.619 429.219 285.574 429.219 312.657C429.219 339.739 451.174 361.694 478.256 361.694Z" fill="#66BBC4"/>
<path d="M478.255 337.154C491.785 337.154 502.753 326.185 502.753 312.655C502.753 299.125 491.785 288.156 478.255 288.156C464.724 288.156 453.756 299.125 453.756 312.655C453.756 326.185 464.724 337.154 478.255 337.154Z" fill="#8ED2CC"/>
<path d="M159.971 361.694C187.054 361.694 209.008 339.739 209.008 312.657C209.008 285.574 187.054 263.619 159.971 263.619C132.888 263.619 110.934 285.574 110.934 312.657C110.934 339.739 132.888 361.694 159.971 361.694Z" fill="#66BBC4"/>
<path d="M159.971 337.154C173.502 337.154 184.47 326.185 184.47 312.655C184.47 299.125 173.502 288.156 159.971 288.156C146.441 288.156 135.473 299.125 135.473 312.655C135.473 326.185 146.441 337.154 159.971 337.154Z" fill="#8ED2CC"/>
<path d="M319.374 164.507C324.111 164.507 327.952 160.666 327.952 155.928C327.952 151.19 324.111 147.35 319.374 147.35C314.636 147.35 310.795 151.19 310.795 155.928C310.795 160.666 314.636 164.507 319.374 164.507Z" fill="#66A5AF"/>
<path d="M370.167 348.805C366.895 350.401 363.424 351.758 359.992 352.955C344.631 358.341 328.631 361.972 312.431 363.768C295.513 365.643 277.558 365.284 262.596 357.184C237.738 343.778 240.81 320.197 240.81 296.137C240.81 292.426 243.803 289.394 247.553 289.394C284.7 289.394 321.848 289.394 358.995 289.394C364.98 289.394 371.643 288.556 377.588 289.394C380.94 289.873 383.773 290.112 385.289 293.942C386.326 296.616 385.688 302.521 386.167 305.593C387.922 316.925 390.476 331.289 382.017 340.426C378.626 343.977 374.556 346.651 370.167 348.805Z" fill="#0B2D4E"/>
<path d="M257.607 272.118C257.128 271.001 256.61 269.884 256.091 268.727C250.665 256.597 246.675 243.789 244.281 230.742C243.403 226.034 242.525 220.887 238.934 217.694C233.946 213.305 224.251 213.864 218.066 214.702C215.193 215.101 212.161 216.098 210.445 218.413C207.572 222.283 207.852 230.981 207.732 235.65C207.054 263.939 229.398 287.32 247.592 306.393C251.103 310.064 254.894 313.774 259.762 315.251C264.63 316.727 270.774 315.211 272.929 310.582C274.485 307.191 273.527 303.201 272.29 299.69C270.176 293.625 266.984 288.079 263.353 282.852C260.879 279.34 259.243 275.869 257.607 272.118Z" fill="#F8A17A"/>
<path d="M367.493 272.118C367.972 271.001 368.491 269.884 369.009 268.727C374.436 256.597 378.426 243.789 380.82 230.742C381.698 226.034 382.575 220.887 386.166 217.694C391.154 213.305 400.85 213.864 407.034 214.702C409.907 215.101 412.939 216.098 414.655 218.413C417.528 222.283 417.249 230.981 417.368 235.65C418.047 263.939 395.703 287.32 377.508 306.393C373.997 310.064 370.206 313.774 365.338 315.251C360.471 316.727 354.326 315.211 352.171 310.582C350.615 307.191 351.573 303.201 352.81 299.69C354.924 293.625 358.117 288.079 361.747 282.852C364.221 279.34 365.857 275.869 367.493 272.118Z" fill="#F8A17A"/>
<path d="M223.892 180.984C222.176 185.373 220.5 189.762 218.864 194.152C213.238 209.234 199.912 234.81 214.954 248.695C216.67 250.251 220.779 250.171 222.894 249.772C228.959 248.575 231.991 242.95 234.944 238.122C243.842 223.718 250.306 207.917 258.884 193.314C265.069 182.78 268.221 170.211 271.174 158.441C273.129 150.66 275.682 139.528 269.099 133.104C266.425 130.471 262.555 129.154 258.844 129.593C256.61 129.872 254.495 130.71 252.46 131.708C250.745 132.546 249.029 133.543 247.592 134.78C243.962 137.892 242.206 142.361 240.011 146.511C237.458 151.378 234.864 156.206 232.47 161.154C229.358 167.658 226.525 174.281 223.892 180.984Z" fill="#F8A17A"/>
<path d="M230.635 157.165C238.935 141.923 249.787 128.197 266.466 122.572C271.254 120.976 277.159 120.577 280.71 124.128C282.944 126.362 283.782 129.714 283.583 132.866C283.304 137.454 281.229 141.764 280.191 146.193C277.398 157.963 273.129 169.454 267.503 180.227C266.306 182.542 257.408 207.679 258.127 208.317C252.261 203.21 243.922 196.906 236.9 193.554C235.024 192.676 218.067 183.938 217.588 185.055C221.538 176.158 225.648 166.382 230.635 157.165Z" fill="#EFBC3C"/>
<path d="M403.123 180.984C404.838 185.373 406.514 189.762 408.15 194.152C413.776 209.234 427.103 234.81 412.06 248.695C410.345 250.251 406.235 250.171 404.12 249.772C398.055 248.575 395.023 242.95 392.07 238.122C383.173 223.718 376.709 207.917 368.13 193.314C361.946 182.78 358.794 170.211 355.841 158.441C353.886 150.66 351.332 139.528 357.916 133.104C360.589 130.471 364.459 129.154 368.17 129.593C370.404 129.872 372.519 130.71 374.554 131.708C376.27 132.546 377.986 133.543 379.422 134.78C383.053 137.892 384.808 142.361 387.003 146.511C389.557 151.378 392.15 156.206 394.544 161.154C397.656 167.658 400.489 174.281 403.123 180.984Z" fill="#F8A17A"/>
<path d="M396.3 157.165C388.001 141.923 377.148 128.197 360.47 122.572C355.682 120.976 349.777 120.577 346.225 124.128C343.991 126.362 343.153 129.714 343.353 132.866C343.632 137.454 345.707 141.764 346.744 146.193C349.537 157.963 353.807 169.454 359.433 180.227C360.63 182.542 369.527 207.679 368.809 208.317C374.674 203.21 383.014 196.906 390.036 193.554C391.911 192.676 408.869 183.938 409.348 185.055C405.438 176.158 401.328 166.382 396.3 157.165Z" fill="#EFBC3C"/>
<path d="M372.639 274.351C372.519 273.912 372.439 273.433 372.32 272.995C368.369 255.957 367.811 238.401 368.29 221.005C368.769 203.927 372.559 187.129 373.078 170.052C373.636 150.381 370.205 122.371 345.586 120.097C335.412 119.139 325.158 118.062 314.863 117.942V117.902C314.504 117.902 314.145 117.902 313.786 117.902C313.427 117.902 313.068 117.902 312.709 117.902V117.942C302.454 118.062 292.2 119.179 281.985 120.097C257.327 122.371 253.896 150.341 254.494 170.052C254.973 187.129 258.803 203.927 259.282 221.005C259.761 238.401 259.202 255.997 255.252 272.995C255.133 273.433 255.053 273.912 254.933 274.351C254.175 277.543 252.898 280.815 253.497 284.047C254.773 291.03 271.611 294.461 277.317 295.937C287.931 298.73 298.863 300.007 309.756 300.805C310.754 300.885 311.711 300.965 312.709 301.005V301.164C313.068 301.124 313.467 301.124 313.826 301.084C314.185 301.124 314.584 301.124 314.943 301.164V301.005C315.901 300.925 316.898 300.885 317.896 300.805C328.788 300.007 339.761 298.73 350.335 295.937C356 294.421 372.878 291.03 374.155 284.047C374.674 280.775 373.397 277.543 372.639 274.351Z" fill="#FFC73C"/>
<path d="M297.906 136.535C313.108 146.59 342.754 138.81 334.335 118.86C333.298 116.426 332.061 114.112 331.383 111.598C330.266 107.408 330.385 103.099 330.465 98.8298C330.585 93.8422 330.625 88.8946 330.904 83.9071C325.358 82.8697 320.849 82.351 314.904 82.5505C309.996 82.7101 305.128 82.2712 300.261 82.5505C299.862 82.5904 299.423 82.5904 299.143 82.8298C298.864 83.0692 298.824 83.4283 298.784 83.7475C298.146 90.4507 298.784 97.2337 298.266 103.977C297.986 107.727 297.468 112.037 295.752 115.548C293.118 120.934 289.168 125.882 292.959 131.708C294.276 133.623 295.951 135.219 297.906 136.535Z" fill="#F8A17A"/>
<path d="M331.184 110.681C330.306 106.811 330.545 102.701 330.625 98.7907C330.745 93.8032 330.785 88.8556 331.064 83.868C325.518 82.8306 321.009 82.3119 315.064 82.5114C310.156 82.671 305.289 82.2321 300.421 82.5114C300.022 82.5513 299.583 82.5513 299.304 82.7907C299.024 83.0301 298.984 83.3892 298.945 83.7084C298.306 90.4117 298.945 97.1947 298.426 103.938C298.266 105.853 298.027 107.808 297.588 109.684C298.346 110.282 299.144 110.841 299.942 111.359C305.967 115.309 314.107 116.626 321.329 114.791C325.079 113.913 328.231 112.556 331.184 110.681Z" fill="#E5785C"/>
<path d="M231.912 210.632L230.516 213.904H396.022L394.346 210.193L231.912 210.632Z" fill="#B8D1CE"/>
<path d="M384.57 318.481H241.887L231.672 212.227C231.473 210.312 232.949 208.676 234.864 208.676H391.672C393.548 208.676 395.024 210.312 394.864 212.227L384.57 318.481Z" fill="#B8D1CE"/>
<path d="M385.726 321.473H240.769L230.395 215.219C230.195 213.304 231.711 211.668 233.627 211.668H392.908C394.824 211.668 396.3 213.304 396.14 215.219L385.726 321.473Z" fill="white"/>
<path d="M385.647 321.475H240.77V327.939H385.647V321.475Z" fill="#B8D1CE"/>
<path d="M313.229 276.625C318.782 276.625 323.284 272.124 323.284 266.57C323.284 261.017 318.782 256.516 313.229 256.516C307.676 256.516 303.174 261.017 303.174 266.57C303.174 272.124 307.676 276.625 313.229 276.625Z" fill="#B8D1CE"/>
<path d="M305.328 344.736C300.061 346.612 294.794 348.447 289.527 350.123C284.14 351.839 253.138 356.826 259.283 368.756C260.48 371.11 263.432 371.869 265.986 372.347C280.869 375.1 296.071 373.864 311.113 372.068" fill="#F8A17A"/>
<path d="M282.904 374.381C276.48 376.217 269.618 377.134 263.633 378.531C260.919 379.169 258.206 379.768 255.493 380.207C251.144 380.885 246.715 381.124 242.326 381.364C239.134 381.523 235.942 381.683 232.71 381.882C230.954 381.962 229.159 382.042 227.563 381.324C225.648 380.446 224.451 378.611 223.333 376.855C221.099 373.344 218.505 370.072 216.63 366.361C215.433 363.927 214.156 361.533 215.473 358.86C216.111 357.543 217.149 356.466 218.226 355.469C219.583 354.192 221.019 352.955 222.655 352.037C228.002 348.965 233.707 350.321 239.373 351.479C245.398 352.715 251.383 354.112 257.528 354.471C264.151 354.87 270.735 354.032 277.318 353.354" fill="#D5EFF7"/>
<path d="M260.48 382.601C261.478 382.521 262.515 382.481 263.513 382.401C265.907 382.242 268.899 381.962 270.735 380.286C271.014 380.007 271.293 379.728 271.453 379.369C271.812 378.491 271.333 377.414 270.535 376.815C269.777 376.217 268.78 376.017 267.822 375.897C268.939 376.057 270.615 371.947 270.814 371.189C271.333 369.114 271.573 366.68 271.373 364.526C271.174 362.491 270.655 360.576 269.338 359.02C268.66 358.222 266.266 355.788 265.029 356.147C266.106 355.827 266.665 354.511 266.306 353.433C265.987 352.356 264.989 351.598 263.952 351.239C262.874 350.88 261.757 350.88 260.64 350.92C254.775 351 248.79 351.399 243.004 350.281C237.857 349.284 233.029 348.965 227.762 349.403C223.852 349.723 219.982 350.76 216.391 352.356C215.433 352.795 214.475 353.314 213.598 353.952C201.827 362.371 210.645 377.174 220.939 382.042C228.56 385.633 236.341 384.675 244.401 383.917C249.747 383.359 255.094 382.96 260.48 382.601Z" fill="#FFC73C"/>
<path d="M340.758 89.0552C336.13 94.6413 329.666 98.2722 323.282 101.664C321.726 102.502 320.13 103.3 318.374 103.699C313.068 104.936 307.721 102.063 303.292 98.8707C297.187 94.4816 291.641 89.2946 286.893 83.5091C282.065 77.6836 279.392 71.2996 276.24 64.4368C273.087 57.534 272.409 50.5515 273.048 43.0103C273.726 35.2298 269.377 28.2871 271.332 20.4667C272.569 15.4791 275.601 10.9704 279.751 7.93799C282.025 6.26218 284.659 5.02528 287.452 4.74597C293.716 4.06767 299.023 8.337 305.207 8.6163C311.432 8.89561 317.457 6.62129 323.442 5.26468C328.669 4.06768 334.414 3.42927 339.601 5.18488C345.387 7.17989 348.18 11.6088 351.372 16.7161C354.125 21.1051 358.235 24.3769 361.507 28.2472C365.896 33.4742 367.292 40.0976 365.896 46.8806C364.699 52.6263 362.464 58.4916 359.551 63.5989C356.998 68.0278 354.245 72.6961 351.252 76.8856C348.978 80.0777 346.464 82.4318 343.831 85.2248C342.793 86.3819 341.836 87.7385 340.758 89.0552Z" fill="#0B2D4E"/>
<path d="M346.425 62.4022C346.306 56.0182 345.388 49.9933 343.712 45.0057C336.411 23.4197 309.358 18.3524 293.238 34.0332C275.283 51.5494 282.625 92.9259 301.897 107.29C307.044 111.12 313.987 112.437 320.171 110.721C338.884 105.494 346.745 82.3125 346.425 62.4022Z" fill="#F8A17A"/>
<path d="M350.853 44.9257C342.674 23.3397 312.11 18.3123 293.916 34.033C289.646 37.7038 285.138 43.4893 283.143 48.7961C281.028 54.4619 281.586 60.7262 282.185 66.7512C282.624 61.7637 284.978 57.2948 288.25 53.5841C289.846 51.7487 291.681 50.1128 293.557 48.5567C294.235 47.9981 299.422 43.2898 298.903 42.6514C300.739 45.0455 302.574 47.4395 305.407 48.6365C308.958 50.1527 312.629 50.9906 316.379 51.8285C323.003 53.2649 328.15 55.1402 332.978 60.0878C337.407 64.6764 340.639 70.3422 342.754 76.3272C343.432 78.2026 344.589 81.1153 347.063 80.2774C347.661 80.0779 352.729 76.2873 352.768 76.008C353.646 71.4594 354.045 66.7911 353.965 62.3223C353.806 55.9781 352.729 49.9532 350.853 44.9257Z" fill="#E5785C"/>
<path d="M336.21 58.0918C337.846 60.7651 338.883 63.7975 339.841 66.7901C341.397 71.5382 342.634 76.6055 344.669 81.1541C351.531 77.0045 356.08 67.229 359.192 60.1666C361.985 53.9023 362.743 48.9147 360.389 42.3312C358.873 38.0619 355.96 34.3113 352.489 31.0394C342.514 21.7028 327.551 16.9147 313.108 17.8724C308.04 18.1916 303.891 19.9871 299.142 21.3836C294.753 22.6604 291.442 23.4983 288.21 27.0893C285.337 30.2813 283.502 34.2714 282.065 38.3412C279.711 44.9247 278.394 51.7477 278.913 58.7302C279.232 63.199 279.272 67.628 283.701 70.1018C283.621 67.4285 283.542 64.7551 283.462 62.0818C283.422 60.805 283.382 59.5282 283.621 58.2514C283.821 57.1342 284.22 56.0569 284.579 54.9796C285.776 51.7078 286.853 49.0743 289.088 46.401C292.04 42.8898 295.911 39.6978 296.709 35.1891C303.651 41.9322 311.871 46.1616 320.968 49.3137C326.753 51.3088 332.659 52.4659 336.09 57.9721C336.17 58.012 336.21 58.0519 336.21 58.0918Z" fill="#0B2D4E"/>
<path d="M346.545 63.001C354.804 58.3726 357.478 69.8638 356.121 75.6095C355.562 77.9636 354.645 80.2778 353.208 82.2728C351.253 84.9062 345.627 89.3352 342.355 86.4624C340.879 85.1855 340.679 82.9511 340.64 80.996C340.44 75.6893 340.959 66.1132 346.545 63.001Z" fill="#F8A17A"/>
<path d="M286.814 63.001C278.554 58.3726 275.881 69.8638 277.238 75.6095C277.796 77.9636 278.714 80.2778 280.15 82.2728C282.106 84.9062 287.732 89.3352 291.003 86.4624C292.48 85.1855 292.679 82.9511 292.719 80.996C292.919 75.6893 292.4 66.1132 286.814 63.001Z" fill="#F8A17A"/>
<path d="M275.003 44.287C274.924 40.9354 272.689 38.0626 270.973 35.1499C268.3 30.6013 267.343 25.2546 267.901 19.9878C268.579 13.8831 272.25 8.21723 277.517 5.10502C281.348 2.83071 286.096 2.0327 290.564 3.30951C294.634 4.46661 297.946 7.57884 301.896 8.65615C310.754 11.0901 319.851 3.86811 328.27 2.1524C336.609 0.436694 345.547 3.22971 349.697 11.6088C351.333 14.9205 352.051 18.7509 354.205 21.7035C357.796 26.6511 364.699 28.2871 367.572 33.7534C372.24 42.691 362.943 55.7384 358.235 62.6411" stroke="#0B2D4E" stroke-width="3" stroke-miterlimit="10"/>
<path d="M295.951 17.9526C302.814 18.3915 309.517 16.9152 316.26 15.5187C319.652 14.8803 323.083 14.601 326.515 14.4813C328.23 14.4414 329.946 14.4414 331.702 14.5212C333.417 14.601 335.173 14.6808 336.889 15.0399C340.36 15.7581 343.632 17.6334 345.747 20.5461C346.824 22.0623 347.143 23.9377 347.223 25.6534C347.343 27.3691 347.303 29.0848 347.662 30.6808C347.941 32.3167 348.819 33.7132 349.856 35.0698C350.854 36.4264 352.011 37.7432 352.809 39.3392C353.567 40.9352 353.886 42.6908 354.006 44.4065C354.086 46.1222 353.966 47.8379 353.806 49.5536C353.846 47.8379 353.846 46.1222 353.687 44.4464C353.527 42.7706 353.128 41.0948 352.33 39.6185C351.532 38.1421 350.375 36.9052 349.298 35.5486C348.22 34.2319 347.223 32.6758 346.824 30.9202C346.385 29.2045 346.385 27.409 346.265 25.7731C346.146 24.0973 345.826 22.4613 344.909 21.1845C344.47 20.5461 343.871 19.9476 343.273 19.389C342.634 18.8304 341.996 18.3516 341.278 17.9526C339.881 17.1147 338.285 16.5561 336.689 16.197C335.053 15.8379 333.378 15.7581 331.662 15.6384C329.946 15.5586 328.27 15.5187 326.555 15.5586C323.163 15.5985 319.772 15.9576 316.38 16.4364C313.028 16.9551 309.637 17.6733 306.245 18.0324C302.814 18.2718 299.343 18.3915 295.951 17.9526Z" fill="#73B8D4"/>
<path d="M298.983 375.339C306.006 374.501 327.073 371.309 333.976 370.551C368.769 366.8 403.203 361.094 435.442 346.77C442.864 343.458 450.724 337.992 454.874 330.89C465.806 312.177 447.253 292.945 427.781 297.294C395.263 304.596 368.649 318.122 337.248 329.254C332.021 331.129 322.564 335.079 317.258 337.074C312.709 338.75 297.387 343.339 292.799 344.975" fill="#0B2D4E"/>
<path d="M312.031 443.768C313.746 448.915 315.502 454.022 317.337 459.089C319.253 464.236 333.936 490.89 321.168 493.324C318.654 493.802 316.34 492.007 314.425 490.331C303.412 480.595 295.312 468.266 287.691 455.658" fill="#F8A17A"/>
<path d="M302.773 478.602C305.207 484.587 308.599 490.412 311.113 495.799C312.27 498.233 313.387 500.667 314.704 503.021C316.778 506.771 319.212 510.283 321.686 513.794C323.482 516.348 325.237 518.901 327.033 521.415C327.99 522.811 329.028 524.248 330.544 525.006C332.34 525.924 334.494 525.764 336.489 525.564C340.479 525.165 344.549 525.205 348.499 524.407C351.093 523.889 353.646 523.41 354.883 520.816C355.482 519.54 355.721 518.103 355.841 516.707C356 514.911 356.08 513.076 355.841 511.28C354.963 505.375 350.574 501.824 346.265 498.153C341.756 494.283 337.088 490.532 333.138 486.063C328.868 481.235 325.557 475.729 322.165 470.303" fill="#D5EFF7"/>
<path d="M309.956 500.665C309.398 499.867 308.839 499.029 308.281 498.231C306.964 496.316 305.408 493.882 305.607 491.448C305.647 491.089 305.727 490.69 305.887 490.371C306.365 489.573 307.483 489.294 308.36 489.533C309.278 489.772 309.996 490.411 310.675 491.049C309.877 490.291 312.031 486.541 312.51 485.942C313.787 484.306 315.502 482.67 317.258 481.553C318.934 480.476 320.729 479.718 322.685 479.797C323.682 479.837 326.994 480.196 327.433 481.353C327.034 480.356 327.712 479.119 328.749 478.72C329.747 478.321 330.944 478.64 331.822 479.239C332.739 479.837 333.418 480.715 334.056 481.593C337.487 486.142 340.759 490.93 345.108 494.68C348.939 497.992 352.051 501.503 354.884 505.772C356.999 508.964 358.515 512.516 359.433 516.226C359.672 517.224 359.832 518.261 359.872 519.339C360.47 533.383 343.872 535.458 334.016 530.511C326.714 526.84 322.804 520.296 318.535 513.713C315.742 509.324 312.869 504.974 309.956 500.665Z" fill="#FFC73C"/>
<path d="M292.48 466.87C288.928 461.005 278.794 443.01 275.243 437.264C257.327 408.456 241.088 378.73 232.789 345.533C230.874 337.872 230.355 328.616 233.307 321.194C241.088 301.643 266.864 304.356 275.163 321.832C289.008 351.039 294.554 379.448 304.809 410.132C306.524 415.239 309.118 424.855 310.794 430.082C312.23 434.591 317.896 448.995 319.372 453.503" fill="#0B2D4E"/>
</svg>
